<svg id="visual" viewBox="0 0 1024 540" width="1024" height="540" xmlns="http://www.w3.org/2000/svg" xmlns:xlink="http://www.w3.org/1999/xlink" version="1.1"><rect x="0" y="0" width="1024" height="540" fill="#002233"></rect><path d="M0 330L14.2 330.8C28.3 331.7 56.7 333.3 85.2 329.3C113.7 325.3 142.3 315.7 170.8 318.5C199.3 321.3 227.7 336.7 256 347.8C284.3 359 312.7 366 341.2 361.7C369.7 357.3 398.3 341.7 426.8 338.2C455.3 334.7 483.7 343.3 512 345.7C540.3 348 568.7 344 597.2 345C625.7 346 654.3 352 682.8 363.3C711.3 374.7 739.7 391.3 768 394.5C796.3 397.7 824.7 387.3 853.2 374.2C881.7 361 910.3 345 938.8 346C967.3 347 995.7 365 1009.8 374L1024 383L1024 541L1009.8 541C995.7 541 967.3 541 938.8 541C910.3 541 881.7 541 853.2 541C824.7 541 796.3 541 768 541C739.7 541 711.3 541 682.8 541C654.3 541 625.7 541 597.2 541C568.7 541 540.3 541 512 541C483.7 541 455.3 541 426.8 541C398.3 541 369.7 541 341.2 541C312.7 541 284.3 541 256 541C227.7 541 199.3 541 170.8 541C142.3 541 113.7 541 85.2 541C56.7 541 28.3 541 14.2 541L0 541Z" fill="#0066FF" stroke-linecap="round" stroke-linejoin="miter"></path></svg>