<svg id="visual" viewBox="0 0 960 540" width="960" height="540" xmlns="http://www.w3.org/2000/svg" xmlns:xlink="http://www.w3.org/1999/xlink" version="1.1"><rect x="0" y="0" width="960" height="540" fill="#002233"></rect><path d="M0 330L13.3 330.8C26.7 331.7 53.3 333.3 80 329.3C106.7 325.3 133.3 315.7 160 318.5C186.7 321.3 213.3 336.7 240 347.8C266.7 359 293.3 366 320 361.7C346.7 357.3 373.3 341.7 400 338.2C426.7 334.7 453.3 343.3 480 345.7C506.7 348 533.3 344 560 345C586.7 346 613.3 352 640 363.3C666.7 374.7 693.3 391.3 720 394.5C746.7 397.7 773.3 387.3 800 374.2C826.7 361 853.3 345 880 346C906.7 347 933.3 365 946.7 374L960 383L960 541L946.7 541C933.3 541 906.7 541 880 541C853.3 541 826.7 541 800 541C773.3 541 746.7 541 720 541C693.3 541 666.7 541 640 541C613.3 541 586.7 541 560 541C533.3 541 506.7 541 480 541C453.3 541 426.7 541 400 541C373.3 541 346.7 541 320 541C293.3 541 266.7 541 240 541C213.3 541 186.7 541 160 541C133.3 541 106.7 541 80 541C53.3 541 26.7 541 13.3 541L0 541Z" fill="#0066FF" stroke-linecap="round" stroke-linejoin="miter"></path></svg>