<svg id="visual" viewBox="0 0 540 960" width="540" height="960" xmlns="http://www.w3.org/2000/svg" xmlns:xlink="http://www.w3.org/1999/xlink" version="1.1"><rect x="0" y="0" width="540" height="960" fill="#002233"></rect><path d="M0 587L7.5 588.7C15 590.3 30 593.7 45 586.5C60 579.3 75 561.7 90 566.5C105 571.3 120 598.7 135 618.7C150 638.7 165 651.3 180 643.8C195 636.3 210 608.7 225 602.3C240 596 255 611 270 615C285 619 300 612 315 613.8C330 615.7 345 626.3 360 646.7C375 667 390 697 405 702.7C420 708.3 435 689.7 450 666.2C465 642.7 480 614.3 495 616.3C510 618.3 525 650.7 532.5 666.8L540 683L540 961L532.5 961C525 961 510 961 495 961C480 961 465 961 450 961C435 961 420 961 405 961C390 961 375 961 360 961C345 961 330 961 315 961C300 961 285 961 270 961C255 961 240 961 225 961C210 961 195 961 180 961C165 961 150 961 135 961C120 961 105 961 90 961C75 961 60 961 45 961C30 961 15 961 7.5 961L0 961Z" fill="#0066FF" stroke-linecap="round" stroke-linejoin="miter"></path></svg>